<svg viewBox="0 0 64 64" stroke="white" fill="white" xmlns="http://www.w3.org/2000/svg">
    <g id="Outline">
        <path d="M53,11H11.05a9.06,9.06,0,0,0-9,9.05V44a9.06,9.06,0,0,0,9.05,9H28a1,1,0,0,0,0-2H11.05a7,7,0,0,1-4.18-1.39l19.27-17,0,0a9,9,0,0,0,11.64,0l.07-.06L57.5,49.33A7,7,0,0,1,53,51H36a1,1,0,0,0,0,2H53a9.06,9.06,0,0,0,9-9V20.05A9.06,9.06,0,0,0,53,11ZM5.44,48.21A7,7,0,0,1,4,44V20.05a7,7,0,0,1,1.81-4.7L24.59,31.28Zm22-17.11-20.11-17A7,7,0,0,1,11.05,13H53a7,7,0,0,1,3.68,1.05L36.52,31.1A7,7,0,0,1,27.48,31.1ZM60,44a7,7,0,0,1-1.17,3.89L39.43,31.25l18.76-15.9A7,7,0,0,1,60,20.05Z"/>
        <circle cx="32" cy="52" r="1"/>
    </g>
</svg>